HIERARCHY
ROOT Hips
{
	OFFSET 0.000000 0.000000 0.000000
	CHANNELS 6 Xposition Yposition Zposition Zrotation Yrotation Xrotation 
	JOINT LeftUpLeg_virtual
	{
		OFFSET 0.000000 0.000000 0.000000
		CHANNELS 3 Zrotation Yrotation Xrotation
		JOINT LeftUpLeg
		{
			OFFSET 10.205400 -3.823500 0.155100
			CHANNELS 3 Zrotation Yrotation Xrotation
			JOINT LeftLeg
			{
				OFFSET 0.708757 -12.982077 0.567790
				CHANNELS 3 Zrotation Yrotation Xrotation
				JOINT LeftFoot
				{
					OFFSET -0.708756 -10.717838 -2.184338
					CHANNELS 3 Zrotation Yrotation Xrotation
					JOINT LeftToeBase
					{
						OFFSET 0.108149 -7.191104 7.560241
						CHANNELS 3 Zrotation Yrotation Xrotation
						End Site
						{
							OFFSET 0.000000 0.000000 0.000000
						}
					}
				}
			}
		}
	}
	JOINT RightUpLeg_virtual
	{
		OFFSET 0.000000 0.000000 0.000000
		CHANNELS 3 Zrotation Yrotation Xrotation
		JOINT RightUpLeg
		{
			OFFSET -10.205400 -3.823500 0.005500
			CHANNELS 3 Zrotation Yrotation Xrotation
			JOINT RightLeg
			{
				OFFSET -0.708756 -12.982134 0.610632
				CHANNELS 3 Zrotation Yrotation Xrotation
				JOINT RightFoot
				{
					OFFSET 0.708754 -10.717769 -1.945823
					CHANNELS 3 Zrotation Yrotation Xrotation
					JOINT RightToeBase
					{
						OFFSET -0.108140 -7.191069 7.372968
						CHANNELS 3 Zrotation Yrotation Xrotation
						End Site
						{
							OFFSET 0.000000 0.000000 0.000000
						}
					}
				}
			}
		}
	}
	JOINT Spine_virtual
	{
		OFFSET 0.000000 0.000000 0.000000
		CHANNELS 3 Zrotation Yrotation Xrotation
		JOINT Spine
		{
			OFFSET 0.000000 6.876099 0.125700
			CHANNELS 3 Zrotation Yrotation Xrotation
			JOINT Spine1
			{
				OFFSET 0.000000 8.022060 0.146608
				CHANNELS 3 Zrotation Yrotation Xrotation
				JOINT Spine2
				{
					OFFSET 0.000000 9.168068 0.167552
					CHANNELS 3 Zrotation Yrotation Xrotation
					JOINT Neck_virtual
					{
						OFFSET 0.000000 0.000000 0.000000
						CHANNELS 3 Zrotation Yrotation Xrotation
						JOINT Neck
						{
							OFFSET 0.000000 10.314075 0.188496
							CHANNELS 3 Zrotation Yrotation Xrotation
							JOINT Head
							{
								OFFSET 0.000000 7.643700 -2.377400
								CHANNELS 3 Zrotation Yrotation Xrotation
								End Site
								{
									OFFSET 0.000000 0.000000 0.000000
								}
							}
						}
					}
					JOINT LeftShoulder_virtual
					{
						OFFSET 0.000000 0.000000 0.000000
						CHANNELS 3 Zrotation Yrotation Xrotation
						JOINT LeftShoulder
						{
							OFFSET 4.392200 8.824978 0.174984
							CHANNELS 3 Zrotation Yrotation Xrotation
							JOINT LeftArm
							{
								OFFSET 8.771219 -2.981674 -0.026999
								CHANNELS 3 Zrotation Yrotation Xrotation
								JOINT LeftForeArm
								{
									OFFSET 8.512804 0.000000 -0.000000
									CHANNELS 3 Zrotation Yrotation Xrotation
									JOINT LeftHand
									{
										OFFSET 18.484802 0.000000 -0.000000
										CHANNELS 3 Zrotation Yrotation Xrotation
										End Site
										{
											OFFSET 0.000000 0.000000 0.000000
										}
									}
								}
							}
						}
					}
					JOINT RightShoulder_virtual
					{
						OFFSET 0.000000 0.000000 0.000000
						CHANNELS 3 Zrotation Yrotation Xrotation
						JOINT RightShoulder
						{
							OFFSET -4.392200 8.824993 0.141379
							CHANNELS 3 Zrotation Yrotation Xrotation
							JOINT RightArm
							{
								OFFSET -8.771282 -2.981682 -0.094208
								CHANNELS 3 Zrotation Yrotation Xrotation
								JOINT RightForeArm
								{
									OFFSET -8.494598 0.000000 0.000000
									CHANNELS 3 Zrotation Yrotation Xrotation
									JOINT RightHand
									{
										OFFSET -18.483803 0.000000 0.000001
										CHANNELS 3 Zrotation Yrotation Xrotation
										End Site
										{
											OFFSET 0.000000 0.000000 0.000000
										}
									}
								}
							}
						}
					}
				}
			}
		}
	}
}
MOTION
Frames: 9
Frame Time: 0.033333
32.772900 35.220848 -59.764034 -179.848880 -20.478772 179.880463 -5.861717 -0.177043 33.176852 11.677232 6.360129 -69.964510 3.241163 18.954653 31.119804 -5.587826 5.204216 17.183422 0.000000 0.000000 0.000000 1.471146 -3.049504 33.651300 10.648691 -9.788877 -64.952353 -1.059145 0.486948 29.007062 1.232104 7.474531 17.384568 0.000000 0.000000 0.000000 -1.106211 -1.385896 49.017010 -1.686796 0.798738 27.340177 0.158264 -1.872474 6.196944 -0.016142 0.034920 -0.009531 0.800806 -1.400742 8.699352 -2.649233 1.030537 -9.214812 0.000000 0.000000 0.000000 1.329669 0.083591 3.980927 3.866217 -22.176219 1.769384 -12.556404 -2.867123 -51.853164 -7.584379 -40.375827 2.463635 0.000000 0.000000 0.000000 -1.908928 0.970499 3.522723 21.960160 28.575252 2.475354 16.079961 25.348208 -16.876252 -9.632813 52.460999 -12.625726 0.000000 0.000000 0.000000 
32.631855 35.164680 -59.938892 -179.807653 -20.330683 -179.943451 -5.964210 0.458940 34.150283 11.949985 6.285757 -71.068392 2.977270 18.939172 31.307340 -5.268963 5.001967 16.413016 0.000000 0.000000 0.000000 1.257240 -2.326563 35.063527 11.191907 -9.891461 -66.045573 -0.848887 0.821012 28.893667 1.248677 7.445049 17.183060 0.000000 0.000000 0.000000 -1.124150 -0.882902 50.499256 -1.587130 1.028732 27.861899 -0.159508 -2.449053 5.790433 0.001439 0.059747 0.024452 0.405096 -1.997352 8.130930 -2.181121 0.642813 -8.605776 0.000000 0.000000 0.000000 0.951909 -0.510655 3.298236 4.497180 -21.398163 1.201564 -10.074483 -4.248288 -53.920717 -9.231259 -40.139085 1.872334 0.000000 0.000000 0.000000 -2.308944 0.321355 2.888437 23.398309 29.582075 2.898906 14.101242 26.609840 -16.033500 -10.217964 51.853512 -13.245516 0.000000 0.000000 0.000000 
32.500019 35.132477 -60.060303 -179.912879 -20.357246 179.963354 -6.200380 1.048572 35.232295 11.895119 6.208232 -71.999121 2.630399 18.756002 31.157882 -4.924214 4.899404 15.881414 0.000000 0.000000 0.000000 0.975178 -1.926669 36.397720 11.595628 -9.886808 -66.954944 -0.692568 1.480599 28.855213 1.069571 7.448069 17.045389 0.000000 0.000000 0.000000 -1.110501 -0.380624 52.116266 -1.300390 1.280408 28.402051 -0.526190 -3.017067 5.349248 -0.030691 0.010852 0.029056 0.086905 -2.531712 7.526559 -1.496043 0.169319 -7.998261 0.000000 0.000000 0.000000 0.585485 -1.096254 2.577852 4.741132 -20.384840 0.869348 -8.317255 -6.181827 -56.096487 -10.834162 -40.236682 1.204734 0.000000 0.000000 0.000000 -2.641058 -0.177205 2.245206 24.845600 30.283071 3.415534 12.449438 27.544488 -14.701675 -10.979069 51.443339 -14.213403 0.000000 0.000000 0.000000 
32.356499 35.126671 -60.191982 -179.877881 -20.140095 179.941812 -6.244346 1.591926 36.275818 11.861463 6.056795 -72.798560 2.334826 18.586304 30.987035 -4.575903 4.864214 15.501895 0.000000 0.000000 0.000000 0.953160 -1.407508 37.627656 11.668266 -9.746370 -67.796888 -0.878136 1.698843 28.697651 1.178713 7.773522 17.100448 0.000000 0.000000 0.000000 -0.889325 0.000200 53.397022 -1.260393 1.707915 28.698614 -0.834530 -3.442905 4.873112 0.001970 0.034648 0.014788 -0.189499 -3.083280 6.978783 -0.697648 -0.409805 -7.517690 0.000000 0.000000 0.000000 0.298136 -1.624092 1.922224 4.762629 -19.296177 0.540742 -7.388377 -8.979143 -57.453113 -12.321483 -41.336899 0.740337 0.000000 0.000000 0.000000 -2.961262 -0.694796 1.666247 26.126271 30.590956 3.597283 11.227970 27.939048 -13.273050 -11.600535 51.360048 -15.101642 0.000000 0.000000 0.000000 
32.193607 35.149418 -60.348942 -179.807230 -19.710809 -179.914109 -6.139407 1.829506 37.179896 12.023837 5.783178 -73.414206 2.301708 18.614984 30.852825 -4.242601 4.930536 15.233142 0.000000 0.000000 0.000000 1.062703 -1.023960 38.599687 11.258783 -9.538042 -68.535389 -0.984517 1.551502 28.497492 1.397438 8.102348 17.240678 0.000000 0.000000 0.000000 -0.821720 0.204251 54.224472 -1.247546 2.167995 28.749356 -1.091021 -3.784592 4.388306 -0.030326 0.056185 0.009146 -0.336524 -3.463761 6.573245 0.165977 -0.954186 -7.201067 0.000000 0.000000 0.000000 0.142799 -1.996136 1.429338 4.651962 -18.330390 0.119433 -7.271817 -12.882562 -57.067361 -14.033198 -43.844521 0.926120 0.000000 0.000000 0.000000 -3.163023 -1.032394 1.257289 27.197777 30.818070 3.888953 10.304689 27.636115 -12.196529 -12.483585 51.471083 -16.315785 0.000000 0.000000 0.000000 
32.025352 35.189304 -60.531174 -179.833540 -19.406487 -179.867827 -5.949706 1.659474 37.862918 12.159527 5.274519 -73.679832 2.325159 18.125621 30.862729 -3.867860 5.129700 15.254135 0.000000 0.000000 0.000000 1.159130 -1.180858 39.232525 10.556877 -9.381432 -68.963334 -0.972230 1.631071 28.330154 1.526437 8.567066 17.628775 0.000000 0.000000 0.000000 -0.673139 0.060536 54.713036 -1.257414 2.612711 28.735729 -1.252854 -4.060779 4.016742 -0.004369 0.043509 0.031829 -0.404440 -3.749327 6.137409 0.940655 -1.520196 -6.835139 0.000000 0.000000 0.000000 0.040919 -2.351661 0.889200 4.472408 -17.746913 0.022880 -7.937726 -17.747162 -54.518368 -15.579737 -47.755142 1.507055 0.000000 0.000000 0.000000 -3.281942 -1.360747 0.814553 27.934092 30.792023 3.790592 10.038915 26.772050 -11.124861 -13.200357 51.456572 -17.442667 0.000000 0.000000 0.000000 
31.861202 35.238060 -60.730576 -179.878072 -19.368345 -179.799334 -5.814017 1.197597 37.771865 12.203498 4.622745 -73.286352 2.571731 17.525553 31.850453 -3.656479 5.316901 13.953336 0.000000 0.000000 0.000000 1.318032 -1.707742 39.409041 9.202774 -9.139435 -68.977418 -0.516844 1.429369 28.501181 1.425767 8.808088 17.784452 0.000000 0.000000 0.000000 -0.565601 -0.322865 54.819771 -1.090395 3.091768 28.579824 -1.328171 -4.173712 3.663839 0.011271 -0.065215 0.022913 -0.510529 -3.937907 5.935362 1.509437 -2.117396 -6.582293 0.000000 0.000000 0.000000 -0.056125 -2.614962 0.586824 4.342833 -17.496674 -0.114301 -9.716437 -23.091611 -49.894976 -17.433141 -52.555707 2.991818 0.000000 0.000000 0.000000 -3.412062 -1.551430 0.584716 28.279302 30.854348 3.707097 10.105562 25.643754 -10.200695 -13.726084 51.109619 -18.157570 0.000000 0.000000 0.000000 
31.692600 35.284992 -60.900436 -179.901186 -19.240686 -179.806383 -5.679129 0.559303 38.143342 12.087639 4.208290 -73.129121 2.935519 17.186851 32.420808 -3.575322 5.596357 13.407900 0.000000 0.000000 0.000000 1.513582 -2.147868 39.090013 8.487708 -9.223773 -68.773188 -0.439301 1.754139 29.039509 1.602557 9.235781 17.920734 0.000000 0.000000 0.000000 -0.504229 -0.602217 54.423692 -0.910950 3.542666 28.513899 -1.445702 -4.289268 3.409211 0.031343 0.046408 0.047274 -0.594352 -4.002407 5.744144 1.865283 -2.651977 -6.468047 0.000000 0.000000 0.000000 -0.125350 -2.739522 0.432092 4.188003 -17.533442 -0.136615 -12.728540 -28.075370 -43.882972 -19.246389 -57.491628 4.859075 0.000000 0.000000 0.000000 -3.522568 -1.649886 0.457238 28.187253 31.056843 3.492362 10.654680 24.237966 -9.131399 -14.097424 50.426972 -18.720596 0.000000 0.000000 0.000000 
31.517668 35.336567 -61.006832 179.998912 -19.433804 -179.746906 -5.458892 -0.035647 37.732694 11.818500 3.385440 -72.214292 3.178983 17.100663 32.440209 -3.513285 5.946424 13.240891 0.000000 0.000000 0.000000 1.693648 -2.805903 38.356365 7.565610 -9.437785 -68.421188 -0.289392 1.980272 29.884543 1.709770 9.520210 18.043516 0.000000 0.000000 0.000000 -0.359166 -1.009475 53.543537 -0.491735 4.007070 28.533020 -1.544933 -4.323520 3.263274 -0.009712 -0.009299 0.032068 -0.648914 -4.021434 5.684613 2.019786 -3.131277 -6.382174 0.000000 0.000000 0.000000 -0.184354 -2.701663 0.439286 3.899136 -17.650307 -0.342496 -16.995654 -31.667107 -37.517864 -21.312514 -61.830089 7.301718 0.000000 0.000000 0.000000 -3.577724 -1.634981 0.448651 27.636443 31.377110 3.219612 11.449879 22.440481 -8.169847 -14.231704 49.631020 -18.927146 0.000000 0.000000 0.000000 
